<svg width="155" height="722" viewBox="0 0 155 722" fill="none" xmlns="http://www.w3.org/2000/svg">
<g clip-path="url(#clip0_48_1304)">
<path d="M9 760C38.8234 760 63 739.405 63 714C63 688.595 38.8234 668 9 668C-20.8234 668 -45 688.595 -45 714C-45 739.405 -20.8234 760 9 760Z" fill="#F1963B"/>
<path d="M63 608C74.0457 608 83 599.941 83 590C83 580.059 74.0457 572 63 572C51.9543 572 43 580.059 43 590C43 599.941 51.9543 608 63 608Z" fill="#7A3D2B"/>
<path d="M121 698C139.778 698 155 685.912 155 671C155 656.088 139.778 644 121 644C102.222 644 87 656.088 87 671C87 685.912 102.222 698 121 698Z" fill="#FF4C09"/>
</g>
<ellipse cx="16" cy="6.5" rx="7" ry="6.5" fill="#FB724C"/>
<ellipse cx="30" cy="31.5" rx="7" ry="6.5" fill="#7A3D2B"/>
<defs>
<clipPath id="clip0_48_1304">
<rect width="157" height="150" fill="white" transform="translate(-2 572)"/>
</clipPath>
</defs>
</svg>
