<svg width="155" height="150" viewBox="0 0 155 150" fill="none" xmlns="http://www.w3.org/2000/svg">
<g clip-path="url(#clip0_8_1240)">
<path d="M9 188C38.8234 188 63 167.405 63 142C63 116.595 38.8234 96 9 96C-20.8234 96 -45 116.595 -45 142C-45 167.405 -20.8234 188 9 188Z" fill="#F1963B"/>
<path d="M63 36C74.0457 36 83 27.9411 83 18C83 8.05887 74.0457 0 63 0C51.9543 0 43 8.05887 43 18C43 27.9411 51.9543 36 63 36Z" fill="#7A3D2B"/>
<path d="M121 126C139.778 126 155 113.912 155 99C155 84.0883 139.778 72 121 72C102.222 72 87 84.0883 87 99C87 113.912 102.222 126 121 126Z" fill="#FF4C09"/>
</g>
<defs>
<clipPath id="clip0_8_1240">
<rect width="157" height="150" fill="white" transform="translate(-2)"/>
</clipPath>
</defs>
</svg>
