<svg width="14" height="14" viewBox="0 0 14 14" fill="none" xmlns="http://www.w3.org/2000/svg">
<g clip-path="url(#clip0_48_1499)">
<path d="M6.92982 3.7322C8.96967 3.7322 10.7889 4.87861 11.6769 6.69241C10.7889 8.50621 8.97506 9.65262 6.92982 9.65262C4.88458 9.65262 3.07078 8.50621 2.18272 6.69241C3.07078 4.87861 4.88997 3.7322 6.92982 3.7322ZM6.92982 2.65576C4.33883 2.65576 2.11205 4.20741 1.11894 6.43164C1.04484 6.59758 1.04484 6.78725 1.11894 6.95319C2.11205 9.17742 4.33883 10.7291 6.92982 10.7291C9.52081 10.7291 11.7476 9.17742 12.7407 6.95319C12.8148 6.78724 12.8148 6.59758 12.7407 6.43164C11.7476 4.20741 9.52081 2.65576 6.92982 2.65576ZM6.92982 5.34686C7.67256 5.34686 8.27537 5.94967 8.27537 6.69241C8.27537 7.43516 7.67256 8.03796 6.92982 8.03796C6.18708 8.03796 5.58427 7.43516 5.58427 6.69241C5.58427 5.94967 6.18708 5.34686 6.92982 5.34686ZM6.92982 4.27042C5.59503 4.27042 4.50783 5.35763 4.50783 6.69241C4.50783 8.0272 5.59503 9.1144 6.92982 9.1144C8.26461 9.1144 9.35181 8.0272 9.35181 6.69241C9.35181 5.35763 8.26461 4.27042 6.92982 4.27042Z" fill="#7A3D2B"/>
</g>
<defs>
<clipPath id="clip0_48_1499">
<rect width="12.9173" height="12.9173" fill="white" transform="translate(0.471191 0.233887)"/>
</clipPath>
</defs>
</svg>
