<svg width="14" height="14" viewBox="0 0 14 14" fill="none" xmlns="http://www.w3.org/2000/svg">
<path d="M5.38178 7.97838C5.03792 7.70186 4.82861 7.32611 4.82861 6.90458C4.82861 6.06009 5.67302 5.37939 6.72076 5.37939C7.23924 5.37939 7.71646 5.54849 8.05435 5.825" stroke="#7A3D2B" stroke-width="1.07644" stroke-linecap="round" stroke-linejoin="round"/>
<path d="M8.57773 7.17505C8.43899 7.79649 7.8314 8.28691 7.06055 8.39963" stroke="#7A3D2B" stroke-width="1.07644" stroke-linecap="round" stroke-linejoin="round"/>
<path d="M3.5243 9.47446C2.57524 8.87421 1.7715 7.99745 1.18903 6.90438C1.77748 5.80649 2.5866 4.92491 3.54165 4.31984C4.49071 3.71478 5.58569 3.38623 6.72073 3.38623C7.86236 3.38623 8.95674 3.71959 9.91178 4.329" stroke="#7A3D2B" stroke-width="1.07644" stroke-linecap="round" stroke-linejoin="round"/>
<path d="M11.1748 5.38843C11.5862 5.82874 11.948 6.33697 12.2524 6.90398C11.0761 9.09927 8.99741 10.4217 6.72074 10.4217C6.20464 10.4217 5.69573 10.3542 5.20654 10.2227" stroke="#7A3D2B" stroke-width="1.07644" stroke-linecap="round" stroke-linejoin="round"/>
<path d="M11.4376 3.10449L2.00439 10.7035" stroke="#7A3D2B" stroke-width="1.07644" stroke-linecap="round" stroke-linejoin="round"/>
</svg>
